<svg id="图层_1" data-name="图层 1" xmlns="http://www.w3.org/2000/svg" viewBox="0 0 330.24 405.96"><defs><style>.cls-1{fill:#fe0071;}.cls-2{fill:#464c53;}.cls-3{fill:#fe2284;}.cls-4{fill:#fe2083;}.cls-5{fill:#fe8abe;}.cls-6{fill:#feb0d4;}.cls-7{fill:#fea9cf;}.cls-8{fill:#fd72b0;}.cls-9{fill:#fd489a;}.cls-10{fill:#fe0072;}</style></defs><title>1111</title><path class="cls-1" d="M389.88,196.77A155.12,155.12,0,1,1,235.31,41.49C321.49,41.72,389.84,111.39,389.88,196.77ZM239.59,294l0-2.38.06-2.31a28.44,28.44,0,0,1,0-9.91c1.09,2.4,1.12,5,1.16,7.53a141.69,141.69,0,0,1-.22,15.83c-.12,1.23.23,1.61,1.45,1.59a44,44,0,0,1,5.13.27c1,.11,1.21-.27,1.25-1.18.25-5.8.67-11.59.34-17.4a31.71,31.71,0,0,0-2.27-11.16c-1.25-2.84-3-5.08-6.21-5.86-.91-.22-1.05-.77-1-1.59,0-2.5,0-5,0-7.52v-6c8.21,5.89,16.74,4.63,22.81.66a17.36,17.36,0,0,0,7.79-18.6,24.25,24.25,0,0,0-6.58-11.5c-.75-.79-1-1.22,0-2.13q6.93-6.79,13.67-13.77c.92-1,1.41-.69,2.18,0a94.5,94.5,0,0,0,9.6,7.94c9.52,6.84,19.34,13.07,31.39,14.33,10.06,1.05,18.66-2,24.58-10.31,7.37-10.38,7.59-21.67,2.28-33-4.13-8.79-11.58-13.22-21.16-14s-18.24,2.55-26.53,7c-7.31,3.89-13.78,9-20.15,14.23-1,.81-1.48.71-2.33-.12-4.38-4.3-8.76-8.6-13.3-12.73-1.48-1.35-1.32-2,0-3.26,5.92-5.74,12-11.36,17.49-17.5a16.5,16.5,0,0,0,4.34-14A19.94,19.94,0,0,0,280.32,137c-6.51-7.52-17.83-9.62-25.93-2.65-5,4.35-9.48,9.36-14.27,14-.47.45-.82,1.11-1.6,1.26,0-.27,0-.4,0-.53,0-7.39.1-14.78-.06-22.17,0-2.37.19-4,2.92-4.35a6.32,6.32,0,0,0,2.11-1,17.21,17.21,0,0,0,7.61-21.65c-3.37-8.14-11-12.51-20-10.82a16.92,16.92,0,0,0-13.95,15c-.67,9.49,3.95,16.43,12.26,19a1.83,1.83,0,0,1,1.55,2.16c-.07,7.06,0,14.12,0,21.19v3.72L217.3,136.45c-7.87-7.9-17.8-8.45-26.39-1.34-4.77,3.95-7.43,9-7.12,15.34.23,4.78,2.44,8.68,5.71,12q8.3,8.49,16.69,16.9c1,1,1.12,1.58,0,2.64q-6.47,6.25-12.74,12.73c-1.06,1.1-1.7,1.12-2.85.12a112.89,112.89,0,0,0-20.34-14.3c-7.12-3.84-14.55-6.75-22.76-7.06-7.48-.29-14.25,1.62-19.68,7-7.87,7.81-9.82,17.42-8,28a27,27,0,0,0,7.72,15.05c6.85,6.74,15.28,8.4,24.47,6.88,6.9-1.15,13.17-4,19.15-7.57a117.15,117.15,0,0,0,19.83-15c.52-.48.91-1.32,1.89-.37,4.76,4.66,9.5,9.34,14,14.29.85.94.89,1.56,0,2.6-4.6,5.35-6,11.41-3.67,18.19,3.22,9.3,13.76,15.89,23.87,12.53,1.36-.45,2.65-1.09,4.15-1.71,0,4.84,0,9.5,0,14.16,0,1-.51,1.21-1.28,1.41a8.23,8.23,0,0,0-4.91,3.72,20.16,20.16,0,0,0-2.8,7.93c-1.17,6.88-.58,13.81-.27,20.72.14,3.1.23,3.09,3.38,3a25.64,25.64,0,0,1,2.77,0c1.24.08,1.73-.31,1.68-1.66-.15-3.69-.23-7.39-.2-11.08a47.69,47.69,0,0,1,.6-9.84c.64,1.52.26,3.21.75,4.76-.78.68-.25,1.55-.32,2.33s-.42,1.9.32,2.73c0,2,0,4,0,6,0,.65,0,1.31,0,2,.08,4.67.08,4.67,4.81,4.66,3.5,0,3.5,0,3.46-3.45-.21-1.51.44-2.94.4-4.43Z" transform="translate(-62.65 -41.49)"/><path class="cls-2" d="M141.7,425c1.62-5.25,3.28-10.47,4.86-15.71q4.06-13.62,8.06-27.25c.26-.87.49-1.74.69-2.63.85-3.71-.06-4.89-3.88-5.06a10.58,10.58,0,0,0-1.78,0c-1.88.23-2.67-.65-2.67-2.45s.85-2.69,2.8-2.69c4.21,0,8.4.47,12.62.43,3.35,0,6.68-.44,10-.44,2.13,0,3,.79,3,2.68s-.65,2.34-2.86,2.49c-3.54.23-7.08.6-9.62,3.55-1.61,1.88-2.16,4.27-2.87,6.54-3.13,10.11-6.15,20.25-9.25,30.36-3,9.74-6.09,19.44-9,29.21-.56,1.85-1.3,2.48-3.21,2.38-3.25-.17-3.25-.05-4.28-3.12l-18.12-53.62c-1.31,2.84-1.76,5.71-2.52,8.45-3.89,14-7.64,28.06-11.44,42.09-.42,1.57-.9,3.13-1.18,4.73-.2,1.19-.79,1.43-1.88,1.44-4.13.06-4.14.09-5.34-3.66q-7.17-22.46-14.35-44.9c-1.65-5.13-3.15-10.3-5-15.35-1.72-4.61-4.59-7.81-9.68-8.5-1.5-.2-2.27-.92-2.21-2.42s.51-2.35,2.18-2.42c5-.19,9.92,0,14.39,2.48,4.14,2.31,6.55,6.13,7.94,10.53,4.43,14,8.76,28.13,13.14,42.2a7,7,0,0,0,.66,1.18c1.65-6.3,3.25-12.39,4.84-18.48q4.76-18.18,9.52-36.36c.05-.19.05-.46.18-.54,1.73-1.16,3.68-.25,5.51-.55,1-.18,1.15.65,1.37,1.28q3,8.44,5.94,16.9Q134.68,406,141,424.21A1.23,1.23,0,0,0,141.7,425Z" transform="translate(-62.65 -41.49)"/><path class="cls-2" d="M351.15,412.75,336,434.49c-.18.27-.4.52-.56.8-1.67,2.84-.73,4.61,2.57,4.8,1.25.07,2.51.07,3.76.06,1.75,0,2.47.88,2.41,2.57s-.49,2.57-2.39,2.55q-12.27-.09-24.54,0c-1.8,0-2.29-1-2.36-2.43s.53-2.56,2.19-2.68c1.12-.08,2.24-.09,3.35-.18,4.24-.35,6.75-3.27,9-6.37,5.92-8.28,11.7-16.66,17.58-25a1.68,1.68,0,0,0,.17-2.22q-7.59-11.71-15.09-23.48c-3-4.75-7.05-8-12.71-8.91-1.72-.27-2.17-1.06-2.13-2.64s.58-2.12,2.08-2.21c7-.44,13.73.18,19.42,5,4.67,4,7.6,9.23,10.72,14.35q2.34,3.82,4.64,7.69c.52.88,1,.89,1.57.05,3.83-5.68,7.76-11.29,11.48-17,2-3.06.51-4.29-2.05-4.63a27.19,27.19,0,0,0-4.49-.26c-1.76.06-2.08-1-2.15-2.38-.07-1.6.54-2.79,2.31-2.76,2.36,0,4.71.33,7.07.34a141.14,141.14,0,0,0,15.39-.34,10.44,10.44,0,0,1,2.56,0c1.53.23,2,1.41,1.93,2.73,0,1.11-.17,2.46-1.72,2.34-6.66-.49-10.57,3.41-14,8.39-4.18,6.15-8.48,12.22-12.79,18.27a2,2,0,0,0-.07,2.72c7.22,10.23,14.34,20.53,21.6,30.73,1.69,2.36,3.54,4.69,6.71,5.42a17.26,17.26,0,0,0,3.1.28c1.81.08,2.38,1.11,2.3,2.73s-.58,2.41-2.36,2.4q-14.14-.07-28.3,0c-1.76,0-2.36-1-2.51-2.37a2.28,2.28,0,0,1,2.15-2.73c1.22-.18,2.47.16,3.67-.41,2-.94,2.7-2.35,1.54-4.24-2-3.21-4.14-6.31-6.28-9.42-2.77-4-5.6-8-8.42-12A13.53,13.53,0,0,0,351.15,412.75Z" transform="translate(-62.65 -41.49)"/><path class="cls-2" d="M277,445.25c-8.64,0-17.28,0-25.92,0-1.78,0-2.76-.43-2.7-2.41.07-2.19.37-2.59,2.63-2.7a15.62,15.62,0,0,0,3.15-.17,5.61,5.61,0,0,0,4.47-4.82,36.43,36.43,0,0,0,.45-4.88q0-17.32,0-34.64c0-3.86,0-7.72,0-11.59a21.45,21.45,0,0,0-.46-4.67c-.75-3-2.47-4.95-7.54-5-2.37,0-2.75-.44-2.69-2.76,0-1.63.84-2.43,2.44-2.38,2.49.1,5,.36,7.46.37q21.38,0,42.76,0c3.29,0,4.2.69,4.29,4.27.13,4.75.07,9.5.08,14.25,0,2.28-.89,3.38-2.91,3.6a3.6,3.6,0,0,1-4.17-3.23,46.34,46.34,0,0,0-1.2-5.71c-1.56-6.19-4.43-8.1-10.55-8.37-4.67-.2-9.36,0-14.05-.07-1.34,0-1.61.42-1.6,1.67.05,9,.07,18.07,0,27.11,0,1.6.54,1.79,1.91,1.78,6.27-.07,12.54,0,18.8,0,1.9,0,2.67.72,2.7,2.51s-.84,2.62-2.66,2.62c-6.33,0-12.67.05-19,0-1.39,0-1.75.35-1.74,1.74.08,7.06-.07,14.12.08,21.18.09,4.61,1.32,7.18,7.05,7.24q6.93.09,13.86,0c4.26-.08,7.13-2.35,8.75-6.82.73-2,1.34-4.07,2-6.1a4,4,0,0,1,6.39-1.58,2.43,2.43,0,0,1,.84,2.24c-.74,4.43-1.4,8.88-2.11,13.31-.6,3.72-.79,3.92-4.89,4-8.64.17-17.28.05-25.93.05Z" transform="translate(-62.65 -41.49)"/><path class="cls-2" d="M187.3,405.11c-.08,10.9,2,19.51,7.88,26.9a23.63,23.63,0,0,0,17.36,9.35,22.17,22.17,0,0,0,12.25-2.18,22.41,22.41,0,0,0,8.43-8.23c1.45-2.29,2.9-2.43,5-.71,1.58,1.29,1.67,2.36.37,4-3.21,4-6.72,7.61-11.29,10.13a24.66,24.66,0,0,1-9.87,2.77c-6.71.6-13.41.58-19.91-1.78-10.48-3.81-17.59-11-21.59-21.27a45.29,45.29,0,0,1-2.5-21.18c.7-7.22,2.6-13.92,6.7-19.93a34.72,34.72,0,0,1,22.78-14.88,43.45,43.45,0,0,1,23.77,1.57c4.61,1.69,9,4,10.84,8.89,2.7,7.1.29,16.07-8.26,18.2-3.26.82-7.1-.11-8.72-2.19-.83-1.07-.94-2,.33-2.78,4-2.42,5.7-6,4.78-10.48-1-5-4.45-7.93-9.3-8.82a21.32,21.32,0,0,0-20.6,6.86c-4.33,4.72-6.46,10.61-7.61,16.86A47.33,47.33,0,0,0,187.3,405.11Z" transform="translate(-62.65 -41.49)"/><path class="cls-3" d="M230.17,281.72c-.13-1.35.66-2.46,1.16-3.7,0,5.66,0,11.31,0,17,0,.86.41,1.83-.35,2.6,0-2,0-4,0-6,0-.91,0-1.82,0-2.73l0-2.33C230.43,284.93,230.81,283.24,230.17,281.72Z" transform="translate(-62.65 -41.49)"/><path class="cls-4" d="M239.22,300.76c-.12-.21-.35-.42-.35-.64,0-7.49,0-15,0-22.75a2.5,2.5,0,0,1,.73,2,28.44,28.44,0,0,0,0,9.91c-.76.68-.23,1.54-.32,2.3l0,2.39c.06.8-.34,1.67.34,2.38C239.66,297.82,239,299.25,239.22,300.76Z" transform="translate(-62.65 -41.49)"/><path class="cls-5" d="M230.87,288.81c0,.91,0,1.82,0,2.73-.74-.83-.29-1.81-.32-2.73h.27Z" transform="translate(-62.65 -41.49)"/><path class="cls-6" d="M230.87,288.81h-.27c.07-.78-.46-1.65.32-2.33Z" transform="translate(-62.65 -41.49)"/><path class="cls-7" d="M239.31,291.56c.09-.76-.44-1.62.32-2.3l-.06,2.31A.76.76,0,0,1,239.31,291.56Z" transform="translate(-62.65 -41.49)"/><path class="cls-8" d="M239.31,291.56a.76.76,0,0,0,.26,0c0,.79,0,1.59,0,2.38h-.31Z" transform="translate(-62.65 -41.49)"/><path class="cls-9" d="M239.28,294h.31l0,2.38C238.94,295.62,239.34,294.75,239.28,294Z" transform="translate(-62.65 -41.49)"/><path class="cls-10" d="M342.58,202c.08,5.92-1.43,10.81-4.87,15-4.84,5.88-11.33,7.13-18.4,5.89-10.7-1.88-19.41-7.8-27.74-14.34-2.59-2-5-4.28-7.55-6.38-.72-.6-.87-.95,0-1.63,7.92-6.61,16.28-12.53,25.89-16.43,4.78-1.94,9.77-3.25,15-2.86,10.09.75,15.5,7.54,17.34,16.39A16.27,16.27,0,0,1,342.58,202Z" transform="translate(-62.65 -41.49)"/><path class="cls-10" d="M127,201.76c.34-7.06,2.53-12.71,7.66-16.84,4.11-3.3,9-4.17,14.17-3.57,10.77,1.23,19.73,6.54,28.32,12.64,2.84,2,5.5,4.3,8.25,6.45.66.51,1,.91.18,1.66-8.78,7.84-17.91,15.17-29.18,19.19-6.07,2.16-12.32,3.17-18.45.35-6.72-3.1-9.76-8.88-10.77-15.93-.11-.78-.14-1.57-.18-2.36S127,201.9,127,201.76Z" transform="translate(-62.65 -41.49)"/><path class="cls-10" d="M266.11,138c4.74.19,8.07,2.69,10.17,6.72,2,3.83,1.5,7.66-1,11.15a27,27,0,0,1-2.73,3.12c-5,5.06-10.09,10.06-15.08,15.14-.89.9-1.37,1-2.3,0-4.59-4.74-9.24-9.41-13.92-14.06-.79-.78-.83-1.22,0-2,5.79-5.59,11.5-11.26,17.28-16.85A10.32,10.32,0,0,1,266.11,138Z" transform="translate(-62.65 -41.49)"/><path class="cls-10" d="M203.18,138c3.56,0,6,1.68,8.17,3.76,5.65,5.44,11.22,11,16.85,16.43.67.64.75,1,.05,1.72-4.78,4.83-9.51,9.71-14.24,14.58-.47.49-.76.69-1.36.08-6.05-6.15-12.67-11.75-18.28-18.33-5.26-6.18-1.57-16.13,6.46-17.84C201.72,138.18,202.64,138.07,203.18,138Z" transform="translate(-62.65 -41.49)"/><path class="cls-10" d="M234.58,164.78c.4.35.75.64,1.07.95,4.73,4.58,9.44,9.18,14.22,13.72.83.79.62,1.18-.06,1.85-4.68,4.63-9.35,9.29-14,14-.72.72-1.08.59-1.71,0q-7.17-7.08-14.4-14.1c-.57-.56-.74-.92-.07-1.58,4.73-4.68,9.42-9.4,14.13-14.1C234,165.25,234.28,165.05,234.58,164.78Z" transform="translate(-62.65 -41.49)"/><path class="cls-10" d="M271.38,202.51c-4.3,4.35-9.22,9.3-14.11,14.29-.66.68-1,.44-1.56-.1q-7.05-6.93-14.15-13.81c-.65-.63-.79-1-.06-1.72q7-6.87,13.86-13.83c.6-.61,1-.88,1.74-.11C261.85,192.35,266.64,197.44,271.38,202.51Z" transform="translate(-62.65 -41.49)"/><path class="cls-10" d="M228.66,201.34l-14.87,16.09c-5.18-5.28-10-10.23-14.89-15.14-.66-.67-.91-1.07-.1-1.87,4.52-4.43,9-8.92,13.44-13.42.65-.67,1-.5,1.53.05C218.89,192,224,196.91,228.66,201.34Z" transform="translate(-62.65 -41.49)"/><path class="cls-10" d="M234.28,208.42c5.16,4.8,10.27,9.56,15.41,14.29.7.65.72,1,0,1.71q-7,6.72-13.89,13.53c-.68.67-1.09.65-1.75,0q-7-7-14-14c-.57-.57-.48-.85,0-1.37C224.82,217.9,229.52,213.18,234.28,208.42Z" transform="translate(-62.65 -41.49)"/><path class="cls-10" d="M234.68,96.38a10.36,10.36,0,0,1,10,9.94c.09,5.08-4.9,9.88-10.17,9.8a9.87,9.87,0,0,1,.12-19.74Z" transform="translate(-62.65 -41.49)"/><path class="cls-10" d="M262.21,239.35c0,7.7-6.62,12.26-13.53,10a21.9,21.9,0,0,1-7.15-4.06c-.68-.55-.72-.9-.09-1.53q7.23-7.17,14.4-14.4c.55-.56.87-.55,1.4,0A16.62,16.62,0,0,1,262.21,239.35Z" transform="translate(-62.65 -41.49)"/><path class="cls-10" d="M213.75,228.66c5,5,10,10.07,15.06,15.06,1,.95.21,1.31-.39,1.8-6.34,5.16-16.4,1.4-18.09-6.75C209.51,234.8,211,231.6,213.75,228.66Z" transform="translate(-62.65 -41.49)"/></svg>