<?xml version="1.0" encoding="UTF-8" ?>
<svg
   viewBox="28.4 17.15 125.97 60">
   <path
         fill="#82a902"
         d="m 33.352537,59.659099 q 0.644922,-2.530078 0.644922,-6.622852 0,-10.070703 -1.5875,-19.397265 -1.562695,-9.351367 -4.043164,-14.039453 2.530078,-0.620117 3.671094,-0.620117 1.637109,0 2.38125,1.537891 0.768945,1.53789 1.934765,7.267773 1.810742,8.780859 2.629297,24.060546 8.284765,-17.065624 13.518554,-26.764257 0.322461,-0.04961 0.47129,-0.07441 1.041796,-0.223242 1.413867,-0.223242 2.058789,0 2.058789,1.95957 0,0.570508 -0.124024,1.413867 -0.992187,8.061523 -0.992187,11.90625 l -0.07441,2.827734 -0.02481,1.686719 q 0,9.301758 2.827734,9.301758 3.22461,0 6.598047,-6.746875 3.745508,-7.540625 3.745508,-17.611328 0,-4.34082 -2.158008,-8.086328 1.785938,-0.446484 3.249414,-0.446484 2.282031,0 3.224609,1.289843 0.942579,1.265039 0.942579,4.415235 0,10.194726 -5.878711,20.786327 -2.703711,4.861719 -6.101953,8.011914 -3.373438,3.150196 -5.903516,3.150196 -2.827734,0 -3.993554,-3.150196 -1.141016,-3.150195 -1.141016,-10.889257 0,-3.100586 0.322461,-9.525 -5.97793,10.368359 -9.128125,17.115234 l -0.818555,1.810742 q -1.761132,3.621484 -2.802929,4.39043 -1.016992,0.768945 -4.861719,1.265039 z"
        />
      <path
         fill="#82a902"
         d="m 112.25961,49.440364 q 0.55408,1.312273 0.55408,2.070476 0,3.79101 -6.50305,7.407051 -6.473876,3.616041 -13.297695,3.616041 -7.465375,0 -11.810457,-4.345081 -4.31592,-4.345082 -4.31592,-11.897942 0,-11.927103 7.815315,-20.500619 7.815314,-8.573517 18.692597,-8.573517 4.43257,0 7.46538,1.574728 3.03281,1.574727 3.03281,3.849334 0,2.041313 -2.62455,4.490889 -3.52856,-7.057112 -10.00244,-7.057112 -7.086271,0 -12.364524,7.37789 -5.278253,7.348729 -5.278253,17.176195 0,6.269748 3.149455,9.944113 3.178616,3.645202 8.573516,3.645202 9.215076,0 16.913736,-8.777648 z"
      />
      <path
         d="m 92.463,42.67087 q 0,7.267774 6.151563,7.267774 5.333007,0 11.757417,-5.084961 6.42442,-5.084961 11.58379,-13.394531 l 2.1084,1.16582 q -4.86172,9.078516 -12.65039,15.03164 -7.76387,5.953125 -14.733983,5.953125 -4.464844,0 -7.069336,-2.877343 -2.579687,-2.877344 -2.579687,-7.863086 0,-7.193359 4.688086,-12.303125 4.71289,-5.109766 11.33574,-5.109766 3.19981,0 5.10977,1.612305 1.93476,1.612305 1.93476,4.316016 0,4.440039 -5.35781,7.863086 Q 99.408313,42.67087 92.463,42.67087 Z m 0.198438,-2.38125 q 5.184179,-0.272851 8.880082,-2.976562 3.7207,-2.703711 3.7207,-6.250781 0,-3.175 -2.82774,-3.175 -3.373433,0 -6.225972,3.621484 -2.852539,3.621484 -3.54707,8.780859 z"
         fill="#ed407a"
        />
      <path
         d="m 134.86569,41.839681 -0.69453,0.744141 q -8.40879,9.028906 -8.85527,16.271875 l -1.38907,-0.868164 q -2.55488,-1.562695 -2.55488,-2.852539 0,-1.785938 3.27422,-6.126758 3.29902,-4.34082 7.59024,-8.210351 l 1.38906,-1.265039 -0.64492,-1.116211 q -1.73633,-2.877344 -3.59668,-7.838281 -1.83555,-4.960938 -1.83555,-6.647657 0,-2.406054 3.1998,-3.447851 l 1.16582,-0.37207 q 0.17364,2.33164 1.90997,7.267773 1.73632,4.936133 3.54707,8.259961 l 0.47128,0.868164 0.81856,-0.595313 q 3.37344,-2.579687 5.55625,-6.275586 2.20762,-3.720703 2.20762,-6.846093 0,-0.620117 -0.17364,-1.289844 l 0.66973,-0.347266 q 1.6123,-0.843359 3.10059,-0.843359 1.51308,0 1.51308,1.562695 0,3.125391 -3.32383,7.714258 -3.29902,4.588867 -8.43359,8.557617 l -0.74414,0.595313 0.49609,0.992187 q 2.40606,4.737695 6.3252,9.376172 2.48047,2.926953 4.06797,3.943945 1.6123,0.992188 3.84472,0.992188 0.91778,0 2.1084,-0.47129 -3.02617,4.836914 -5.95312,4.836914 -2.97657,0 -7.44141,-5.035351 -1.46348,-1.637109 -3.89434,-5.208984 -2.43085,-3.59668 -3.1998,-5.233789 z"
         fill="#82a902"
       />    
</svg>
