<?xml version="1.0" encoding="UTF-8"?>
<svg xmlns="http://www.w3.org/2000/svg" xmlns:xlink="http://www.w3.org/1999/xlink" width="283.47pt" height="404.88pt" viewBox="0 0 283.47 404.88" version="1.1">
<defs>
<clipPath id="clip1">
  <path d="M 0 0 L 283.46875 0 L 283.46875 404.878906 L 0 404.878906 Z M 0 0 "/>
</clipPath>
</defs>
<g id="surface1">
<g clip-path="url(#clip1)" clip-rule="nonzero">
<path style=" stroke:none;fill-rule:nonzero;fill:rgb(13.699341%,12.199402%,12.5%);fill-opacity:1;" d="M 121.195313 270.8125 C 120.898438 265.664063 122.683594 260.21875 127.597656 257.832031 C 126.882813 262.796875 124.839844 267.214844 121.195313 270.8125 Z M 169.460938 218.21875 C 172.71875 219.992188 175.660156 222.28125 178.71875 224.382813 C 183.246094 227.609375 188.90625 228.660156 193.519531 231.769531 C 184.078125 231.285156 174.375 226.507813 169.460938 218.21875 Z M 104.242188 226.738281 C 109.4375 223.265625 114.832031 220.109375 120.09375 216.71875 C 120.3125 223.367188 115.214844 227.84375 109.671875 230.398438 C 110.6875 228.511719 111.792969 226.65625 112.878906 224.820313 C 110.019531 225.503906 107.148438 226.207031 104.242188 226.738281 Z M 215.003906 225.804688 C 217.007813 221.511719 219.296875 217.351563 221.585938 213.191406 C 222.035156 218.4375 220.582031 224.101563 215.003906 225.804688 Z M 100.78125 217.886719 C 106.046875 213.894531 112.945313 212.558594 118.15625 208.246094 C 115.683594 215.496094 107.433594 217.066406 100.78125 217.886719 Z M 144.085938 198.054688 C 148.878906 197.789063 153.390625 199.660156 156.546875 203.269531 C 152.136719 202.234375 147.925781 200.429688 144.085938 198.054688 Z M 136.566406 188.117188 C 138.855469 194.664063 134.246094 201.898438 127.828125 203.820313 C 131.890625 199.277344 135.246094 194.148438 136.566406 188.117188 Z M 186.175781 320.761719 C 184.171875 320.195313 182.167969 319.476563 180.0625 319.542969 C 158.828125 321.949219 140.691406 323.492188 119.460938 320.410156 C 113.160156 319.492188 108.101563 323.570313 102.652344 325.875 C 103.640625 336.230469 118.777344 346.480469 122.617188 343.03125 C 127.179688 336.515625 134.179688 331.753906 142.113281 330.652344 C 146.875 330.71875 151.671875 331.101563 156.347656 329.902344 C 160.390625 328.78125 161.132813 330.800781 165.078125 331.386719 C 185.628906 329.9375 173.800781 340.449219 185.074219 341.660156 C 189.996094 339.734375 199.542969 330.492188 197.167969 322.453125 C 193.441406 322.222656 190.65625 321.824219 186.175781 320.761719 Z M 26.191406 213.976563 C 25.503906 216.316406 26.324219 217.152344 28.644531 216.484375 C 29.3125 214.144531 28.496094 213.308594 26.191406 213.976563 Z M 28.226563 206.710938 C 26.507813 207.144531 23.5 208.816406 24.71875 210.988281 C 27.492188 213.507813 33.574219 206.359375 28.226563 206.710938 Z M 242.101563 218.90625 C 240.8125 222.914063 236.101563 223.398438 232.761719 224.820313 C 230.875 243.613281 211.445313 257.3125 193.132813 254.890625 C 180.472656 253.085938 168.359375 245.25 162.8125 233.539063 C 160.421875 228.59375 161.609375 222.714844 158.96875 217.886719 C 159.371094 230.296875 161.976563 243.3125 169.828125 253.285156 C 173.589844 258.332031 178.71875 263.378906 178.433594 270.175781 C 178.582031 274.21875 175.621094 280.496094 167.542969 285.710938 C 191.609375 288.144531 199.820313 306.195313 205.78125 306.527344 C 212.308594 305.394531 218.886719 307.113281 222.652344 289.421875 C 224.140625 279.566406 225.496094 275.585938 228.980469 266.269531 C 231.15625 260.460938 234.296875 253.070313 239.261719 249.445313 C 247.042969 235.027344 251.371094 218.335938 250.417969 201.914063 C 246.175781 206.777344 244.941406 213.273438 242.101563 218.90625 Z M 74.953125 307.867188 C 77.203125 310.21875 81.316406 310.777344 84.59375 310.371094 C 89.726563 309.738281 94.199219 306.34375 98.527344 303.503906 C 105.960938 298.96875 112.816406 290.695313 115.445313 289.039063 C 121.882813 284.976563 131.074219 283.433594 137.71875 286.515625 C 141.578125 286.179688 145.488281 286.148438 149.28125 285.261719 C 152.359375 284.363281 153.921875 281.902344 154.960938 278.996094 C 155.390625 281.804688 154.011719 284.59375 151.167969 287.449219 C 163.871094 286.65625 172.132813 277.457031 174.558594 270.675781 C 177.429688 265.585938 156.046875 245.308594 155.664063 215.882813 C 147.894531 215.078125 139.625 214.527344 132.457031 218.1875 C 132.742188 227.257813 131.222656 236.980469 125.039063 244.03125 C 119.175781 249.863281 118.175781 259.984375 109.152344 262.410156 C 111.992188 258.515625 115.5 255.191406 118.640625 251.550781 C 105.027344 257.980469 88.738281 257.695313 75.339844 250.832031 C 67.554688 246.570313 62.191406 238.769531 60.6875 230.066406 C 60.003906 224.703125 52.71875 224.867188 50.730469 220.292969 C 47.605469 214.292969 44.617188 208.179688 40.605469 202.683594 C 35.277344 207.511719 38.085938 215.363281 37.785156 221.644531 C 39.9375 232.203125 39.773438 243.195313 43.261719 253.46875 C 49.128906 261.792969 48.84375 267.042969 55.675781 272.019531 C 61.027344 283.296875 56.550781 288.617188 74.953125 307.867188 Z M 93.414063 202.03125 C 91.410156 204.472656 95.667969 207.195313 97.339844 204.738281 C 99.3125 202.300781 95.070313 199.542969 93.414063 202.03125 Z M 188.640625 200.410156 C 187.738281 203.101563 188.65625 204.003906 191.414063 203.117188 C 192.300781 200.410156 191.378906 199.492188 188.640625 200.410156 Z M 66.902344 209.347656 C 64.296875 213.292969 61.238281 218.621094 64.53125 223.066406 C 66.335938 225.953125 61.773438 228.476563 62.824219 231.550781 C 65.015625 240.921875 72.714844 248.359375 81.753906 251.296875 C 93.015625 255.125 106.445313 255.960938 116.804688 249.210938 C 125.425781 243.949219 129.5 233.824219 130.535156 224.167969 C 127.964844 223.96875 125.390625 223.714844 122.835938 223.367188 C 124.707031 219.992188 127.210938 216.917969 128.496094 213.257813 C 127.730469 210.785156 126.558594 208.429688 124.855469 206.476563 C 119.675781 204.503906 114.03125 204.054688 108.585938 203.21875 C 106.996094 206.84375 105.894531 212.757813 100.867188 212.722656 C 95.234375 212.757813 89.421875 213.074219 84.058594 211.035156 C 85.679688 210.785156 88.921875 210.300781 90.542969 210.050781 C 89.65625 207.59375 88.753906 205.140625 87.820313 202.699219 C 82.523438 207.796875 75.640625 210.453125 69.109375 213.542969 C 71.378906 209.683594 73.851563 205.757813 77.511719 203.066406 C 81.335938 200.144531 86.230469 199.140625 90.058594 196.203125 C 80.015625 194.449219 72.917969 202.765625 66.902344 209.347656 Z M 194.488281 194.398438 C 200.066406 196.203125 205.964844 196.636719 211.59375 198.238281 C 217.089844 199.84375 219.28125 205.640625 221.820313 210.167969 C 216.371094 208.863281 210.757813 208.3125 205.296875 209.785156 C 205.328125 206.808594 205.28125 203.835938 204.996094 200.878906 C 202.457031 205.222656 201.136719 212.273438 194.65625 211.738281 C 188.824219 212.691406 185.382813 207.578125 182.792969 203.285156 C 181.1875 204.105469 179.585938 204.921875 177.980469 205.757813 C 179.320313 207.359375 180.703125 208.914063 182.160156 210.433594 C 181.625 210.9375 180.539063 211.921875 180.003906 212.421875 C 182.226563 213.859375 184.398438 215.332031 186.503906 216.949219 C 181.1875 215.898438 175.992188 214.292969 170.964844 212.339844 C 173.570313 211.988281 176.175781 211.671875 178.800781 211.355469 C 176.292969 210.617188 173.773438 209.933594 171.28125 209.25 C 172.234375 206.410156 173.269531 203.585938 174.191406 200.746094 C 169.042969 203.253906 166.238281 208.246094 164.132813 213.308594 C 165.851563 216.132813 167.589844 218.957031 169.0625 221.914063 C 166.789063 222.28125 164.5 222.5625 162.210938 222.8125 C 163.648438 237.765625 176.628906 249.109375 190.695313 252.300781 C 206.816406 256.109375 224.558594 245.335938 229.554688 229.78125 C 231.105469 226.089844 228.367188 223.414063 225.160156 222.144531 C 227.398438 220.890625 229.160156 219.042969 230.105469 216.214844 C 227.28125 211.636719 224.910156 206.828125 222.4375 202.066406 C 215.539063 194.296875 204.359375 192.109375 194.488281 194.398438 Z M 264.519531 169.457031 C 260.960938 175.769531 260.292969 183.40625 255.914063 189.285156 C 253.609375 192.410156 251.773438 195.835938 250.152344 199.34375 C 257.46875 200.378906 257.621094 209.066406 259.910156 214.5625 C 255.316406 218.636719 260.492188 224.734375 258.386719 229.8125 C 256.398438 235.058594 257.886719 240.574219 259.074219 245.820313 C 258.238281 246.238281 256.535156 247.089844 255.699219 247.523438 C 256.699219 251.75 257.1875 256.042969 257.484375 260.371094 C 258.070313 260.386719 259.242188 260.402344 259.824219 260.417969 C 267.191406 247.824219 268.679688 232.621094 268.414063 218.269531 C 268.664063 211.019531 264.9375 204.519531 261.679688 198.289063 C 268.015625 201.085938 271.890625 199.605469 273.65625 192.71875 C 275.484375 185.601563 269.976563 184.117188 264.300781 186.113281 C 264.9375 178.710938 269.714844 172.847656 273.339844 166.699219 C 270.234375 166.75 266.625 166.75 264.519531 169.457031 Z M 10.417969 168.003906 C 12.722656 170.039063 15.097656 172.011719 17.46875 173.984375 C 16.148438 181.101563 12.472656 187.679688 11.9375 194.933594 C 13.226563 207.160156 16.117188 219.1875 20.09375 230.835938 C 23.066406 241.542969 22.429688 255.125 32.371094 262.359375 C 33.457031 258.730469 35.980469 254.738281 33.957031 250.980469 C 30.648438 244.132813 33.957031 235.796875 29.515625 229.398438 C 26.289063 227.273438 22.097656 226.238281 19.992188 222.746094 C 15.449219 215.5625 13.859375 206.828125 14.160156 198.425781 C 20.878906 198.589844 30.566406 195.96875 33.355469 204.269531 C 35.34375 203.203125 37.332031 202.167969 39.335938 201.128906 C 36.464844 195.550781 32.421875 190.722656 28.511719 185.84375 C 26.390625 182.117188 26.523438 177.625 25.671875 173.515625 C 23.53125 172.878906 21.410156 172.277344 19.273438 171.660156 C 18.105469 169.921875 17.050781 168.085938 15.582031 166.582031 C 13.792969 166.765625 12.074219 167.25 10.417969 168.003906 Z M 105.609375 43.808594 C 104.710938 58.054688 118.25 66.179688 124.453125 71.558594 C 111.679688 69.664063 104.542969 59.402344 101.382813 47.367188 C 98.734375 58.117188 106.730469 66.042969 114.382813 70.054688 C 108.851563 72.53125 104.441406 68.546875 101.203125 66.164063 C 96.980469 63.054688 93.8125 59.128906 93.148438 58.328125 C 91.117188 69.121094 111.066406 78.988281 118.273438 83.234375 C 110.164063 81.277344 97.246094 78.886719 92.65625 74.167969 C 88.398438 69.789063 85.136719 64.449219 82.488281 58.894531 C 82.339844 65.058594 86.015625 70.171875 88.71875 75.398438 C 81.753906 71.699219 80.710938 64.359375 79.246094 59.914063 C 78.34375 61.898438 78.304688 64.8125 79.179688 68.699219 C 76.96875 67.6875 75.664063 64.902344 74.488281 60.347656 C 73.132813 71.976563 84.128906 79.125 90.960938 86.777344 C 78.621094 83.878906 71.285156 74.691406 71.429688 64.171875 C 62.457031 74.011719 55.460938 85.742188 51.25 98.386719 C 48.945313 108.195313 47.972656 119.253906 52.101563 128.691406 C 59.617188 138.699219 58.015625 151.914063 56.242188 163.507813 C 55.726563 169.222656 47.640625 170.125 46.773438 175.753906 C 45.667969 183.054688 44.734375 190.40625 43.796875 197.722656 C 45.683594 202 48.792969 205.605469 50.929688 209.765625 C 53.335938 213.945313 54.589844 219.304688 59.519531 221.3125 C 61.804688 216.148438 63.792969 210.851563 65.882813 205.589844 C 62.304688 204.800781 59.476563 202.207031 57.214844 199.007813 C 61.257813 200.761719 65.230469 202.800781 69.558594 203.835938 C 66.683594 201.464844 64.40625 198.464844 62.992188 194.679688 C 65.433594 196.804688 67.648438 199.214844 71.09375 200.394531 C 74.921875 198.207031 78.796875 196.101563 82.691406 194.011719 C 74.585938 191.125 66.519531 187.597656 57.730469 187.882813 C 61.972656 185.160156 65.867188 179.144531 71.5625 181.300781 C 86.75 185.007813 102.050781 188.71875 116.519531 194.796875 C 119.945313 196.585938 124.589844 197.789063 125.742188 202 C 127.445313 205.40625 128.265625 209.785156 131.4375 212.140625 C 141.730469 210.335938 152.472656 209.199219 162.578125 212.691406 C 163.664063 209.816406 164.800781 206.976563 165.9375 204.121094 C 162.828125 202.867188 159.738281 201.566406 156.699219 200.160156 C 163.582031 192.140625 173.621094 187.296875 184.03125 185.996094 C 197.175781 184.308594 210.457031 181.285156 223.757813 183.136719 C 223.808594 188.132813 220.015625 191.390625 216.625 194.449219 C 221.300781 197.371094 225.042969 203.320313 231.222656 202.484375 C 231.570313 204.695313 230.703125 206.664063 229.71875 208.613281 C 232.957031 207.117188 235.867188 204.613281 238.875 202.082031 C 237.1875 206.058594 234.066406 209.03125 230.890625 211.839844 C 231.492188 214.527344 232.144531 217.234375 232.878906 219.90625 C 236.203125 218.085938 238.40625 215.0625 239.5625 211.503906 C 242.234375 204.035156 247.378906 196.667969 245.339844 188.382813 C 243.71875 180.230469 241.75 171.675781 236.253906 165.160156 C 231.222656 158.878906 226.578125 151.597656 226.261719 143.308594 C 225.929688 132.96875 228.800781 122.359375 225.628906 112.238281 C 222.085938 107.59375 216.273438 104.050781 215.621094 97.753906 C 214.082031 86.59375 211.058594 75.550781 205.445313 65.726563 C 199.648438 53.914063 186.167969 49.105469 174.390625 45.546875 C 174.605469 49.347656 175.953125 52.390625 177.097656 55.46875 C 173.515625 52.546875 172.257813 48.304688 171.28125 44.425781 C 171.28125 50.207031 171.957031 56.738281 174.441406 61.25 C 165.332031 56.582031 170.222656 44.054688 163.214844 40.886719 C 164.199219 46.417969 165.894531 52.882813 164.640625 58.65625 C 160 54 161.800781 42.242188 156.816406 39.164063 C 157.351563 43.515625 158.703125 50.140625 154.042969 55.453125 C 154.535156 47.023438 154.097656 41.558594 149.816406 37.410156 C 150.285156 39.363281 150.734375 41.335938 151.1875 43.308594 C 147.976563 40.382813 145.789063 35.171875 140.675781 35.707031 C 144.074219 46.777344 146.269531 48.367188 149.496094 53.414063 C 144.570313 50.140625 139.492188 46.246094 137.402344 40.484375 C 136.28125 37.996094 135.949219 34.789063 132.925781 33.851563 C 133.328125 37.890625 136.71875 46.21875 138.230469 47.910156 C 139.742188 49.605469 148.898438 57.929688 153.75 61.25 C 148.515625 61.308594 141.824219 58.714844 136.546875 54.058594 C 131.988281 50.039063 130.160156 43.507813 127.847656 37.910156 C 128.414063 41.972656 127.917969 46.363281 129.773438 50.074219 C 135.085938 61.800781 150.699219 64.15625 158.335938 73.878906 C 149.71875 75.464844 137.027344 65.414063 130.128906 59.332031 C 119.042969 49.554688 124.808594 45.605469 117.921875 35.957031 C 116.636719 42.890625 119.894531 49.222656 122.398438 55.417969 C 117.289063 51.726563 115.109375 45.601563 113.90625 39.9375 C 108.570313 46.886719 123.414063 62.632813 128.570313 67.039063 C 118.925781 67.875 108.492188 51.703125 105.609375 43.808594 Z M 133.617188 0.0078125 C 146.152344 -0.136719 158.769531 3.378906 170.714844 6.886719 C 198.964844 16.628906 223.890625 35.890625 240.613281 60.632813 C 245.808594 67.796875 246.675781 77.121094 252.140625 84.105469 C 258.371094 91.957031 264.402344 99.976563 271.1875 107.375 C 268.796875 108.144531 266.40625 108.914063 264.019531 109.699219 C 265.972656 118.050781 267.292969 126.535156 267.660156 135.109375 C 267.859375 142.023438 270.199219 148.605469 271.117188 155.421875 C 275.429688 157.292969 280.65625 159.28125 281.925781 164.378906 C 286.9375 182.9375 278.066406 201.3125 278.402344 219.957031 C 278.804688 234.460938 276.230469 249.058594 270.382813 262.359375 C 268.226563 267.753906 261.644531 270.445313 260.976563 276.507813 C 260.203125 282.386719 268 303.738281 241.382813 345.027344 C 226.8125 364.707031 208.6875 382.257813 187.9375 395.289063 C 173.222656 404.675781 154.945313 405.863281 138.003906 404.308594 C 117.808594 402.6875 97.625 394.6875 83.742188 379.585938 C 65.617188 359.886719 52.367188 336.316406 40.65625 312.425781 C 37.132813 305.992188 34.007813 299.277344 32.589844 292.0625 C 31.019531 285.664063 31.035156 278.914063 28.8125 272.683594 C 24.753906 268.320313 19.65625 264.648438 17.417969 258.898438 C 12.507813 249.425781 13.027344 238.433594 9.417969 228.542969 C 6.226563 219.722656 4.957031 210.417969 2.984375 201.296875 C 0.710938 189.71875 -1.875 177.421875 1.964844 165.914063 C 3.285156 161.070313 7.578125 158.113281 11.238281 155.105469 C 12.289063 143.863281 12.875 132.285156 9.117188 121.425781 C 10.070313 115.511719 10.652344 109.429688 13.511719 104.035156 C 16.097656 99.792969 13.542969 94.394531 16.550781 90.285156 C 24.617188 75.816406 32.9375 61.417969 42.878906 48.136719 C 46.402344 43.324219 50.949219 39.363281 56.011719 36.222656 C 66.015625 29.84375 73.085938 19.96875 82.707031 13.101563 C 83.710938 13.855469 84.710938 14.625 85.714844 15.410156 C 90.007813 13.1875 94.566406 11.449219 98.5625 8.675781 C 101.996094 6.230469 110.144531 4.945313 117.953125 3.296875 C 124.125 1.992188 130.023438 0.046875 133.617188 0.0078125 "/>
</g>
</g>
</svg>
